<svg xmlns="http://www.w3.org/2000/svg" width="17" height="24" viewBox="0 0 17 24"><g fill-rule="nonzero" fill="none"><path d="M11.08.4A8.53 8.53 0 0 0 1.99 3l4 3.3L11.09.4Z" fill="#1A73E8"></path><path d="M1.99 3A8.3 8.3 0 0 0 0 8.35c0 1.57.31 2.84.85 3.98L6 6.31 1.99 2.99Z" fill="#EA4335"></path><path d="M8.5 5.17c1.8 0 3.26 1.43 3.26 3.2 0 .78-.3 1.5-.78 2.07l5.06-5.93A8.44 8.44 0 0 0 11.08.4L6 6.3a3.32 3.32 0 0 1 2.5-1.13" fill="#4285F4"></path><path d="M8.5 11.56a3.23 3.23 0 0 1-3.26-3.2c0-.78.28-1.5.76-2.05L.85 12.34c.88 1.93 2.35 3.48 3.86 5.42l6.27-7.34c-.6.71-1.49 1.14-2.48 1.14" fill="#FBBC04"></path><path d="M10.87 19.8C13.71 15.42 17 13.44 17 8.36c0-1.4-.35-2.7-.96-3.86L4.71 17.76c.48.62.98 1.33 1.45 2.05C7.9 22.44 7.41 24 8.52 24c1.1 0 .62-1.58 2.35-4.2" fill="#34A853"></path></g></svg>