<svg xmlns="http://www.w3.org/2000/svg" height="43" viewBox="0 0 76 43" width="76"><path d="M.06 38.1h.72v1.58h1.38V38.1h.72v3.88h-.72v-1.63H.78v1.63H.06zm5.37-.08a2.01 2.01 0 1 1 0 4.03 2.01 2.01 0 1 1 0-4.03z"></path><path d="M5.43 41.38c.74 0 1.31-.62 1.31-1.34 0-.74-.58-1.35-1.3-1.35s-1.31.61-1.31 1.35c0 .72.57 1.34 1.3 1.34zM7.96 38.1h.99l1.03 2.93 1.03-2.93H12v3.88h-.72v-2.9h-.01l-.99 2.9h-.6l-1-2.9v2.9h-.72zm4.69 0h2.08v.67h-1.37v.95h1.3v.67h-1.3v.92h1.37v.67h-2.08zm7.3 1.59-.66 1.17.69.74-.51.45-.53-.58c-.14.2-.45.58-.98.58-.6 0-1.28-.45-1.28-1.23 0-.66.5-.95.73-1.09-.18-.2-.33-.4-.33-.73 0-.6.49-.97.99-.97.53 0 1 .39 1 .95 0 .6-.44.86-.62.95l.36.4.37-.64z"></path><path d="M18.4 39.01c0-.15-.08-.33-.33-.33a.32.32 0 0 0-.33.32c0 .17.13.3.28.45.2-.1.39-.2.39-.44zm-.55 1.28c-.15.06-.47.21-.47.57 0 .34.27.51.53.51.3 0 .45-.27.54-.43zM23.26 40h2.52v.09c0 1.1-.96 1.96-2.04 1.96-1.11 0-2.08-.85-2.08-2.01 0-1.14.96-2.02 2.06-2.02.97 0 1.67.66 1.87 1.22h-.86a1.23 1.23 0 0 0-1.03-.55c-.87 0-1.33.75-1.33 1.35 0 .6.45 1.34 1.37 1.34.48 0 .93-.27 1.14-.7h-1.62zm4.29-1.9h.56l1.62 3.88h-.8l-.4-1h-1.39l-.41 1h-.79z"></path><path d="M27.38 40.3h.89l-.44-1.19h-.01zM30.1 38.1h1.19c.44 0 .72.09.94.26.22.18.45.5.45.94 0 .26-.1.66-.37.93-.23.22-.45.27-.64.32l1.05 1.42h-.87l-1.02-1.48h-.01v1.48h-.72V38.1z"></path><path d="M30.82 39.95h.46c.59 0 .69-.39.69-.6 0-.2-.13-.58-.7-.58h-.45zM33.13 38.1H34c.95 0 1.37.26 1.6.45.36.32.63.9.63 1.5 0 .7-.36 1.37-.93 1.67-.35.2-.85.26-1.28.26h-.9z"></path><path d="M33.84 41.3H34c.39 0 .64-.02.94-.18.39-.21.58-.66.58-1.07 0-.38-.16-.73-.4-.95-.3-.27-.68-.33-1.13-.33h-.14zM36.77 38.1h2.08v.67H37.5v.95h1.3v.67h-1.3v.92h1.36v.67h-2.08zm2.76 0h.82l1.6 2.82V38.1h.72v3.88h-.8l-1.61-2.82h-.01v2.82h-.72zm5.58.67h-.71v-.67h2.15v.67h-.72v3.2h-.72zm1.77-.67h2.08v.67h-1.37v.95h1.3v.67h-1.3v.92h1.37v.67h-2.08zm2.58 0h.72v3.2h1.18v.68h-1.9zm2.24 0h2.08v.67h-1.36v.95h1.3v.67h-1.3v.92h1.36v.67H51.7zm2.25 0h.76l1.03 2.95h.01l1.04-2.95h.75l-1.5 3.88h-.58zm4 0h.71v3.88h-.72zm1.9 2.77c.03.38.29.51.5.51.29 0 .54-.19.54-.48 0-.4-.26-.47-.74-.66-.3-.11-.92-.3-.92-1.11 0-.62.48-1.1 1.14-1.1.45 0 1.1.3 1.14 1.1h-.73c-.03-.35-.24-.44-.43-.44-.23 0-.4.17-.4.4 0 .33.25.4.64.54.32.1 1.01.35 1.01 1.19s-.64 1.23-1.25 1.23c-.5 0-1.22-.33-1.26-1.18zm2.27-2.77h.72v3.88h-.72zm3.1-.08a2.01 2.01 0 1 1 0 4.03 2.01 2.01 0 1 1 0-4.03z"></path><path d="M65.21 41.38c.74 0 1.3-.62 1.3-1.34 0-.74-.57-1.35-1.3-1.35-.72 0-1.3.61-1.3 1.35 0 .72.57 1.34 1.3 1.34zM67.77 38.1h.82l1.6 2.82V38.1h.72v3.88h-.8l-1.61-2.82h-.01v2.82h-.72zM12.44 14.75v6.98H7.59v-6.98H0v20.9h7.59v-7.57h4.85v7.58h7.7v-20.9zM.06 14H41.1L20.33.06zM40.99 19.6l-4.87 1.99a5.7 5.7 0 0 0-4.97-3.14c-3.2 0-5.8 2.92-5.8 6.52 0 3.6 2.6 6.52 5.8 6.52a5.8 5.8 0 0 0 5.35-3.94h-5.22v-3.7h10.2v-9.1h-5.32a10.75 10.75 0 0 1 4.83 4.86zm-14.5-4.85h-6.34v8.63a11.52 11.52 0 0 1 6.35-8.63zm9.31 20.9h5.67v-6.42a11.33 11.33 0 0 1-5.67 6.43zm-15.65-8.84v8.85h6.62a11.67 11.67 0 0 1-6.62-8.85zM57.92 15.55l7.4 20.1h.93l7.18-20.1H76v-.77h-6.72v.77h3.22l-5.23 14.52L62 15.55h3.2v-.77h-23v6.63h.82c.56-3.97 1.89-6.08 6.26-5.86v19.17h-3.25v.94h10.46v-.94h-3.25V15.55h4.68zM67.13 35.53a.8.8 0 0 1 .82-.78.8.8 0 0 1 .8.78.8.8 0 0 1-.8.8.8.8 0 0 1-.82-.8z"></path><path d="M67.29 35.53c0 .36.29.64.66.64.36 0 .65-.28.65-.64 0-.35-.3-.63-.65-.63a.64.64 0 0 0-.66.63z"></path><path d="M68.35 35.98h-.15l-.26-.4h-.16v.4h-.14v-.89h.4c.08 0 .15 0 .22.05.07.04.1.11.1.19 0 .17-.12.24-.28.24z"></path><path d="M67.93 35.46c.12 0 .3.02.3-.13 0-.12-.1-.14-.22-.14h-.23v.27z"></path></svg>