<svg xmlns="http://www.w3.org/2000/svg" height="43" viewBox="0 0 113 43" width="113"><path d="M0 21.05v21h113v-42H0zm111.15 0V40.2H2V1.9h109.16z"></path><path d="M9.8 10.3c0 .5.04.57.34.57.18 0 .54.05.78.09l.44.08v20l-.44.1c-.24.05-.6.1-.78.1-.32 0-.34.05-.34.63v.64h7.52v-1.23l-.71-.1-.71-.1-.01-4.16c0-2.3-.03-4.33-.05-4.56l-.03-.38h10.03v9.1l-.87.1-.85.1.04.58.04.58h7.53l.04-.6c.04-.56.01-.6-.3-.6-.2 0-.55-.05-.8-.1l-.43-.1v-20l.44-.08c.24-.04.6-.09.78-.09.3 0 .34-.07.34-.57v-.57h-7.67v1.1l.85.1.86.1v8.53h-.32c-7.35.01-9.55 0-9.58-.06-.03-.04-.04-1.98-.04-4.28v-4.19l.7-.1.72-.1v-1.1H9.8zm27.82-.25c-1.07.74-1.4 1.86-.87 2.92 1.04 2.05 4.28 1.35 4.28-.91 0-1.39-.91-2.33-2.22-2.33-.5 0-.85.09-1.2.32zm7.8.17c0 .47.02.48.72.57l.7.1v20.34l-.3.07c-.19.03-.49.09-.69.1-.3.05-.35.13-.4.57l-.04.53 3.57.01h3.56L52.5 32c-.05-.46-.1-.54-.4-.59-.2-.01-.5-.07-.67-.1l-.32-.07V9.73h-5.68zm14.7 1.72c-.31.12-1.12.37-1.8.57l-1.25.37v3.39l-1.52.04-1.53.05v1.28l1.44.07 1.45.07.06 6.05c.06 6.3.08 6.63.7 7.56.96 1.42 4.07 1.65 7.67.56.96-.3.96-.3.96-.83v-.53l-1.74.05c-2.04.04-2.55-.13-3.02-1.06-.27-.53-.28-.84-.28-6.18v-5.62l1.88-.04 1.88-.05v-1.4l-1.88-.03-1.88-.05-.05-2.25c-.04-2.5.02-2.39-1.09-2.02zm13.77 4a9.32 9.32 0 0 0-3.4 1.34c-2.18 1.51-3.31 3.76-3.46 6.83-.18 4.69 1.6 7.5 5.37 8.5 1.3.35 4.56.35 5.8-.01a7.77 7.77 0 0 0 5.53-4.98c.28-.8.37-1.37.42-2.75.12-3.05-.56-5.08-2.22-6.74-1.67-1.65-3.41-2.29-6.18-2.26-.87.02-1.7.04-1.86.07zm2.73 1.27c.5.16.88.4 1.3.85 1.18 1.29 1.63 3.1 1.63 6.34 0 5.11-1.27 7.35-4.13 7.29-2.45-.06-3.74-2.55-3.76-7.22-.01-3.22.47-5.15 1.56-6.35 1-1.07 1.98-1.34 3.4-.91zm18.75-.94c-.92.3-1.85.81-2.91 1.6-.41.3-.78.55-.82.55-.05 0-.08-.48-.08-1.07v-1.07H85.9v1.1l.7.1.72.1V31.2l-.32.09c-.18.04-.5.09-.7.09-.38 0-.4.04-.4.57v.56l3.59-.02 3.57-.05v-.5c0-.48-.01-.5-.73-.6l-.76-.14V19.57l1.25-.6c1.1-.55 1.35-.62 2.25-.62.85 0 1.09.06 1.57.38 1.18.79 1.3 1.48 1.32 7.62v4.85l-.74.13c-.73.12-.75.13-.75.62v.5l3.5.04c3.8.04 3.78.04 3.59-.76-.08-.27-.22-.35-.79-.43l-.7-.1v-5.5c0-3.6-.05-5.81-.15-6.34-.32-1.6-1.42-2.86-2.78-3.2a8.83 8.83 0 0 0-3.76.11zm-60.16.5c0 .48.01.5.7.61l.73.11v6.82c-.01 3.76-.04 6.85-.07 6.9-.04.02-.37.1-.73.14-.65.07-.65.07-.6.58l.04.51h6.95l.05-.5.04-.52-.71-.1-.73-.1V16.28h-5.67z"></path></svg>