<svg xmlns="http://www.w3.org/2000/svg" height="43" viewBox="0 0 160 43" width="160"><g transform="translate(0 .053598)"><path d="m141.195786 12.3923509c0-.7509899-.604629-1.3591378-1.356353-1.3591378h-2.009728c-.751724 0-1.356353.6107139-1.356353 1.3617038v21.0217303c0 .7518452.60634 1.3599931 1.356353 1.3599931h2.011439c.750013 0 1.354642-.6115693 1.354642-1.3617038zm2.56208.558538v.9998944c0 .4122746.337915.7467132.751834.7467132h13.863703c.632851 0 1.145973-.510639 1.145973-1.1427364v-1.6918657c0-.6329527-.519109-1.2051763-1.145973-1.1427363 0 0-13.404459 1.3155153-13.833771 1.3634145-.447617.0394137-.788769.4179525-.781766.8673163zm-11.224436 21.8266067c-3.449036 0-5.620397-2.6164899-5.620397-5.5280727l-.001711-8.4114292h-.986904c-.252218.000227-.494195-.0997645-.6727-.2779774-.178505-.178213-.278915-.4200491-.279142-.6723071v-1.4078922c0-.5260351.427602-.9494292.955262-.9494292l.983484.0017107-.00171-5.1713952c0-.7321724.589235-1.3257795 1.323-1.3257795h1.960981c.730344 0 1.323.5978838 1.323 1.3300562v5.1679738l3.054787-.0008553c.52595 0 .955262.4225387.955262.9494292v1.4078922c0 .5268904-.427602.9502845-.951841.9502845l-3.058208-.0008553.003421 7.7801871c0 1.5267847.92533 2.5694461 2.577583 2.5694461h.278797c.571275 0 1.035651.4593184 1.035651 1.0306866v1.5267848c0 .5730788-.462665 1.0323973-1.033941 1.0323973h-1.844674zm-32.299325-17.8518343c-5.5759263 0-8.7025502 4.3639528-8.7025502 8.9631245 0 4.9011073 3.3489768 9.214595 8.7393242 9.214595 3.689348 0 7.325673-1.9441915 8.012401-5.1354709.093218-.4310922-.196696-.9956176-.803036-.999039l-2.637447.0017107c-.478059 0-.868887.2292315-1.104068.5747895-.755145 1.1059567-1.859212 1.6935764-3.492651 1.6935764-2.3099044 0-3.9099901-1.8193116-4.0305738-3.8370624h11.2091518c1.032231 0 1.494896-.5611041 1.494896-1.5139546 0-4.4828453-2.655407-8.9622692-8.685447-8.9622692zm0 3.5992774c2.05762 0 3.834733 1.4643448 4.015181 3.4461713h-8.0004289c.180448-1.9818265 1.9276287-3.4461713 3.9852479-3.4461713zm51.082159-3.5992774c-5.576782 0-8.704261 4.3639528-8.704261 8.9631245 0 4.9011073 3.348977 9.214595 8.739324 9.214595 3.689348 0 7.325673-1.9441915 8.012402-5.1354709.093217-.4310922-.196697-.9956176-.803036-.999039l-2.635738.0017107c-.479769 0-.870597.2292315-1.105778.5747895-.755144 1.1059567-1.859212 1.6935764-3.492651 1.6935764-2.309904 0-3.90999-1.8193116-4.030574-3.8370624h11.209152c1.032231 0 1.494896-.5611041 1.494896-1.5139546 0-4.4828453-2.656262-8.9622692-8.683736-8.9622692zm0 3.5992774c2.055909 0 3.834732 1.4643448 4.01347 3.4461713h-8.000429c.179593-1.9818265 1.926774-3.4461713 3.986959-3.4461713z"></path><path d="m123.14073 11.268432h-36.3110839c-.8252713 0-1.4914749.6705878-1.4914749 1.4959925l.1240045 14.262821s-7.8234013-14.1362305-8.2313334-14.8564281c-.3839863-.6782859-1.2075473-1.3035406-2.3483887-1.3035406h-2.9855153c-.8261266 0-1.4940405.6705878-1.4940405 1.4959925l.0017104 20.9173785c0 .8254047.6670587 1.4951371 1.4931853 1.4951371h1.9148005c.8258846-.0018875 1.4941313-.6725388 1.4931853-1.4985584l-.1205837-14.6631209s7.8995145 14.2756511 8.2373199 14.8384659c.4558234.7603987 1.2280722 1.3232134 2.3449679 1.3232134h2.7426375c.8269818 0 1.4931853-.6697324 1.4931853-1.4951371l-.0017104-18.4668249h33.1408452c.270353.0006817.529866-.1062554.721276-.2972145.191409-.190959.298981-.4502445.298981-.720642v-1.5096779c-.001415-.5632298-.458828-1.0188025-1.021968-1.0178565z"></path><path d="m117.262917 20.350449c1.578705 0 2.759741.5730789 3.185633 1.5627091.203538.4764253.599497.5679468 1.142552.5679468h2.171361c.360896 0 .769683-.3087783.769683-.7783608 0-2.5249684-3.008605-4.7787935-7.27094-4.7787935-4.409429 0-7.304292 2.1015743-7.304292 5.4468153 0 2.5608927 2.020845 4.0842561 4.507777 4.7343157 1.134.2976588 3.070181.7749394 4.01176 1.0221332 1.015981.2668665 1.924207.5765002 1.924207 1.4480933 0 1.3728232-1.449569 1.8406951-3.028275 1.8406951-1.498317 0-2.989791-.6697325-3.417393-1.7371988-.248864-.6201226-.681597-.7099335-1.339249-.7099335h-2.208135c-.385697 0-.828692.3310172-.828692.833958v.2839734c0 2.443711 3.277139 5.0020377 7.79689 5.0020377 3.205302 0 7.67203-1.3317669 7.67203-5.6315691 0-2.4907547-1.665081-4.2151233-4.376076-4.902818-1.060452-.2685772-3.608104-.9169261-4.162275-1.0606235-.988616-.2557472-1.908815-.5782109-1.908815-1.4249991 0-1.2821571 1.184457-1.7183813 2.662249-1.7183813zm-80.3788641-13.91469694c.4019408 0 .7277782-.32589.7277782-.72789569s-.3258374-.72789569-.7277782-.72789569-.7277782.32589-.7277782.72789569.3258374.72789569.7277782.72789569zm-9.7732653-1.28899977c.3381782 0 .6123257-.27419182.6123257-.61242458 0-.33823275-.2741475-.61242458-.6123257-.61242458-.3381781 0-.6123257.27419183-.6123257.61242458 0 .33823276.2741476.61242458.6123257.61242458zm-7.3265281 14.97532051-.298466-.3198977c.8312577-.7723735 1.7112621-2.0040654 1.8540811-2.726829.1325565-.6722985 1.0989365-.5653808.9150677.1659363-.2334705.9348883-1.3777328 2.0639392-2.4706828 2.8807904zm-6.2010804-14.72042872c-1.529959.66203439-1.7540223 2.23073087-.680742 3.17246196 1.2939229 1.13418294 3.4276555.14626341 3.2224067-1.59008002 1.7352079.08895553 2.8546692-1.70384044 2.5784385-2.96290326.7722487-.66117905.849217-2.07420336-.0769683-2.62932005-.9928913-.5944624-1.9276287-.36694154-2.5228503.78007153-1.5898232-.11547111-3.1129406 1.13503829-2.5202846 3.22976984l-.7363302-.32160844c-.9706559-2.03058093.7294886-4.10478428 2.8144746-3.62664833.305679-.66197875.8848109-1.15770761 1.5859463-1.35754784.7011353-.19984023 1.4545461-.08391772 2.0632069.31745246 1.3383935.81086383 1.6214658 2.90302936.1984073 3.91746448.6713347 1.95274485-.6670588 3.54795691-2.7032982 3.36576916-.2386018 2.51128293-2.6075154 2.83545733-4.1374744 1.64311119-.8637555-.67315383-1.2169546-1.60633151-1.3837192-2.31027763-.1753168-.74500253-.1753168-1.41216897-.9107917-2.17941037-.55331669-.57906626-1.54449751-.5593934-1.54449751-.5593934 0-1.82444361-1.70613093-3.49407039-3.82446993-2.68577259-.75086865-.64663824-1.67876441-.71078886-2.34325751.08895552-.38655197.46445049-.59949764 1.68502293.5918008 2.24441633-.06157465 1.66278405 1.2058369 2.72426296 3.05906282 2.57714421.0726923.88356786 1.05190027 1.70469579 1.9199318 1.82187759l-.00769683.44392228c-.92618537-.08895552-1.4273346.2343636-2.04479151.99989432-2.17820324-.10264099-3.70388624.86646098-3.64060118 2.42917008-1.53081422.2908162-1.81730738 1.8937263-.94927585 2.7473572.86803152.8536309 2.14057429.5191924 2.57416245-.5003748 1.54449747.2942375 2.90854701-.8125745 2.97097686-2.0895995 1.44272826 0 2.07386842-.5705129 2.30990458-1.8971477l.54476461.0444778c.1607783 1.4284205-.50029403 2.7841369-2.22181862 2.6224773-.04447058 1.7055511-1.6992893 2.659257-3.24293157 2.0699267-.72093652 1.3540057-2.37233443 1.8954369-3.75861926.5739342-1.33924864-1.2761697-.85007225-3.4615674.90052926-3.9910239.04019456-1.6721928 1.27510838-3.26056213 3.67395412-2.64813755 0 0 .30872845-.74671321 1.0595971-.79119097-.50029403-.20528198-.87914917-.48155731-.98262879-.99647295-1.80961055.38575906-3.34641119-1.28044636-2.93505832-2.95777121-1.63258343-.8596183-1.65909473-2.47279254-.84921705-3.43163046.84408583-.99818364 2.25004034-1.21886176 3.50804465-.14284205 2.13031185-1.18037139 4.53856483.2651559 4.39146983 2.69261533 1.48976445-.09921963 2.39456975 1.20346561 2.22866025 2.56003737.2454434-.59788377.5327918-.87501444 1.0835428-.99476227z"></path><path d="m17.24345 2.48835063.3600406.25745782c-.6987012 1.4746089-1.9353254 3.04073935-2.9940673 3.90206833l-.4045113-.30450161c.7508687-1.22142779 2.362072-3.23746791 3.038538-3.85502454zm-10.42321997 8.09922947.24287779.3600988c-.88256998.9049514-2.51600862 2.1118384-3.38318494 2.5309558l-.33866057-.3677969c.8389546-.9049514 2.44160591-2.0895995 3.47896772-2.5232577zm2.11064217-4.38191492-.42589133.52689042c-1.15537989-.75783265-3.43535234-2.79525632-3.94932963-3.52999474l.35918546-.36694155c1.10406768.5593934 3.25832523 2.48049061 4.0160355 3.37004587zm-2.1431399 19.33414132c.13170134.661179.02138009 1.3933514.61745691 2.108417.21038005.2506151 1.36747035 1.7739784 2.20642496 2.5608927-1.13998623.4490543-3.41995869 1.3762446-5.06109415 1.5823819-.32839814.0419118-.69784604.2719987-1.00742969.4490544-.20524884.35069-.4173393.9776554-.50628046 1.6858782-.06328506.5063623-.05512017 1.069177-.05512017 1.6439666 0 .5063622.26806584 2.0981529.83421053 3.1673299.56699991 1.069177 1.11090932 1.5473129 1.78053363 1.8595126.13255654-.0581632.42418093-.1017857.87914917-.1120498 1.23918984-.0282262 2.20899057.6569024 2.63659231 1.2445221.16334386.2258101.491742.2702879.92361976.2702879.9997328 0 2.0995245-.3293065 3.143728-.7270404.2232081-.1838984.8526378-.6030158 1.4709499-1.0888498.6174569-.4841233 4.0596509-3.4042595 5.5827683-4.141564.8021809.4345136 2.1191942.993907 3.4789677.993907.0786787 0 .340371.0034213.6183121-.0581633.4250362-.0966536.9698008-.2856841 1.6548188-.420828 1.2272169-.2386403 2.6665244-.4490544 3.0864293-.443067 1.1288686.0179622 4.4376508.1034964 5.2218724.1034964.8227057 0 1.9960449-.0718487 2.4441715-.1154712.6927148-.2292315 2.2363571-.6569023 3.7150039-1.3394649 1.475226-.653481 4.581325-2.8097971 5.0893159-3.3024739.2471538-.2206781.4660859-.4627398.6277193-.6782858.0607195-.0838235.0829547-.1171818.0829547-.1838985l-.017104-2.178555s.7423166-.823694 1.0262441-1.1093781c.0273666-.0265155.029077-.0650059.0248009-.0915215-.1274253-.4225387-.2548506-1.7371988-.1821583-3.0706763l-.7517238-.3506901c-.0339441 1.4006371-.4493862 2.7654593-1.2015609 3.9474015-1.117751.1770557-3.2506284.8382347-4.0186011 1.7123938l.4224705.1206032c.7209365-.3977338 1.4931852-.6765752 2.3757552-.6765752.7799456 0 1.1237374.205282 1.1237374.4242494 0 .1539615-.147095.5226137-.2035384.6397955-.0675611.1334333-.1120317.3036463-.2428778.445633-1.0658424 1.1696983-2.3147753 2.1582595-3.6978998 2.9269789-.9800632.548274-1.9045382.9169262-3.349832 1.3266348-.432733.1223139-1.0262442.2976589-1.411941.4310922-.5447646-.0171068-3.3908818-.100075-5.0533973-.100075-1.6616603 0-5.0893159.2420617-6.1788451.5174817-.4943076.1248799-.6174569.3241745-1.1921536.3241745-1.0732804 0-2.4818005-.5448526-3.3464112-.96397-.1248597.0367797-.4378642.175345-.7500135.3310172-.6140361.3053569-1.9789408 2.1999385-2.7725696 1.6268597-.4053665.8305367-2.1551128 1.6174509-2.7537552 2.4787799.0658507-.450765.7722487-3.3760333.8389546-3.9610869.0119729-.1034963.0205249-.1873198-.0453258-.2976589-.638837-1.0674663-2.4245018-1.7457522-3.4310763-1.9424807-.2959004-.0581632-.441285-.0983643-.6396922-.1436974l-1.58811286-.4798466-1.47351558.4798466 1.7001445.3258851-2.15767836 1.4301312c.37457912-.1436974 2.6998774-.788625 2.8717733-.8399455.1898551-.0564525.4438506-.1120497.7209365-.0153961.3164253.1103391 1.2135337.315621 1.7471807.5012302.3138597.1086283.8278369.6851286.9603935.9921962.0538778.1283012.0744027.3977338.109466.9939069.0213801.375495-.0744027.8972534-.1650542 1.3026853-.2377466 1.0606235-.7200814 1.8894495-.8723076 2.1853977-.21038.407998-.5011492.5397206-.7876424.6748645-.4703619.2206782-1.0450586.3592435-1.6838956.3677969-.4387194.0051321-.73205419-.0179621-.91934375-.2719986-.58923519-.7954677-2.0447915-1.5669858-3.53113514-1.279591-.9116469-.5516953-1.81559697-2.3325165-1.81559697-3.7506729 0-.8502095.42931214-2.1905298.66021708-2.8636836 1.48463323-.1984393 4.45389968-1.3300562 5.89833838-1.9861032.302742-.0153961 1.1331446-.3087783 1.9267734-.3087783 1.9421671 0 3.8689405 1.6987084 5.0388589 2.8465768.1915655-.315621.5516062-.793757 1.5444974-.793757 1.3751672 0 2.1619544 1.2496541 2.5562032 2.5360878l.7166605-.520903c-.1428791-.7995466-.5217403-1.5380282-1.0878188-2.1203918-.4746379-.4747146-1.378588-.8690271-2.0858413-.8690271-.4250361 0-.8671763.094943-1.1459726.094943-.9826288 0-1.382864-.4379349-2.1080766-.9374544-.7833664-.5414313-2.2406331-1.3266348-3.2805605-1.3266348-.6696243 0-.9706559.2625898-1.5231174.2643005-.8124433.0051321-1.11433012-.3327279-1.5034477-.8168512-.17018549-.2121247-.99289123-.9425864-1.21267852-1.2359686-.12657011-.1685023-.35063342-.858763-.43187775-1.204321z"></path><path d="m7.90462804 26.3395508c.23603616.2523258.46352028.5311672.75856548.7569774.28478275.215546.64482341.4028658.98262879.5944624.47720349.2702879 1.01854729.5799216 1.55561509.7501345.4703619.1419867 1.0809772.20015 1.6539635.20015.8167194 0 1.7805337-.1685023 2.5784385.2035713.5353574.250615.5712759.8151405.9963121.9802214.6619274.2574578 2.5014701.3173317 3.5208726.3173317 2.0191354 0 4.2033251-.2557471 5.4938272-.5645254l-.6294298-.693682c-.8928324.1419867-3.5131759.4276708-4.7155919.4276708-1.6941581 0-3.2942438-.270288-3.2942438-.9725234 0-.4841234.5216741-1.1846481 1.5145653-1.1846481 1.0664388 0 2.6784973.6449275 2.9761081.7330277.298466.0889555.4199049.065006.6071945-.0213835l.6242985-.3224638c-.8286922-.3857591-3.7132935-1.3779553-4.7181575-1.3779553-.4754932 0-.7329094.0684273-1.0416379.4661612-.3856967.4960981-1.4153617.9485738-3.059918.9485738-.9013845 0-2.1910313-.1608042-2.4741036-.2771307-.4951629-.2035713-1.46496359-.766386-2.08498611-1.214585-.79961525-.5765003-1.49575087-1.2162958-1.97466482-1.963009-.13828459-.2139888-.21110461-.4636978-.20952485-.7184869.00171041-.1941626.05644343-.3746396.07611311-.5174817.14281898.1984393.29761081.3421367.49516281.5277458.86803152.8450775 2.14912633 1.4797409 3.46613966 1.7320667.3754343.0718487.7089637.1283012 1.080122.1283012.5618687 0 1.0809772-.3010802 1.4110857-.5961731l-.5173981-.6013051c-.1667646.0504652-.5122669.0504652-.739751.0504652-1.9122349 0-4.33930239-1.2513648-4.89775026-2.6977474-.05558823-.1419867-.1222941-.2206781-.06670587-.3524007.05558822-.1334333.1248597-.4148407.16505427-.6740092.11203165.1283012.34293659.3224638.63627138.5114943.71067409.455897 2.06617158 1.0871391 2.33128468 1.2530754.6833076-.1967286 1.1972848-.4259601 1.6035065-.6363742.4847669-.2545755 1.0234914-.389205 1.5710088-.3926018 1.3974025 0 3.0034746.7971784 4.5120535 1.5404703l1.029665-.4062873c-1.3383935-.9408758-4.2512165-2.2581018-5.8701167-2.2581018-.9552622 0-1.8532259.6988141-2.4929181.6988141-.78507677 0-3.0342619-1.0965479-3.0342619-2.0109081 0-.7030908 1.45555631-1.10168 3.7962482-1.3899301-.4072563.6020808-.7904053 1.220126-1.1485382 1.8526699l.5960768.3310172c3.6662573-5.3099606 7.4796095-8.7578425 10.6874778-10.85856148 1.1647871-.76382004 1.4307554-1.209453 1.8378322-2.04255571.9937465-2.03143628 1.9310495-3.59329002 3.5610673-3.59329002.7611311 0 1.382864.42681545 1.8096105.95712724l1.1801808.35240073-1.1947192.80915315 1.2212305.48497868c-1.593244.44734365-3.7705921 1.99722261-4.6514517 4.27157589-1.698434.09066621-2.517719 1.46520012-3.072746 2.61734522-.3745791.7766502-.9698008 1.0871392-1.8378323 1.6747589l-6.9425418 4.840378.9552623.1317226 6.414026-4.2955254c1.264846-.8536309 1.8669092-1.4831623 2.1696513-2.0895995.5952216-1.1897802 1.235769-2.0742034 2.4937733-2.0742034.6183121 0 1.2802396.2651559 1.8096105.7646754l1.1245926.3677969-1.2280722.7509899 1.029665.6320974c-2.9419.9220583-4.766049 3.0304753-5.8256461 7.0617002l.7808008.1770557c.390828-1.3351882.7756696-2.559182 1.4649636-3.6394785 1.7052757-.0196728 3.4310763-.0821128 5.1252344-.0821128 4.5206055 0 8.2732384.1907412 10.2983602.7869143l-.7166605-1.244522c-2.1670856-.3677969-5.3108136-.5585381-9.5816997-.5585381-1.4324659 0-2.8828909.0530312-4.3239088.0684274.9296062-.9844982 2.2688548-1.8124689 4.3307504-2.4522644l-1.4632532-.8057317 1.6248866-.9015301-2.2141217-.8236939c-.3874072-.3481241-.8688868-.6671665-1.4743708-.81941727.7081084-2.17941037 3.1240583-3.453014 5.4390941-4.33059447l-1.6214658-.66117905 1.6360042-.89554264-2.5185742-.8040211c-.6576515-.77237345-1.2913573-1.12477418-2.2628684-1.12477418-2.3355607 0-3.3173343 2.02887024-4.2435196 3.82679827-.487466.94686313-.7961945 1.34545231-1.6248866 1.88859422-1.7959273 1.17523935-4.0861622 2.97231202-6.2720623 5.27403622-1.1425518-.8236939-3.4755469-3.2314805-4.1101079-4.54528518-.2497194.30877831-.4968732.98193214-.4968732.98193214.2386018.25232577 2.9880809 3.02961994 4.0091939 4.20656994l-.230905.2583132c-1.088674.2164014-3.9185423.4884-4.88150138.3575327l-.5404886.9596933c.71922612-.0709933 3.53027998-.4020105 4.69677748-.4704379-.357486.4331564-.7036748.8755169-1.038217 1.3266348-3.6158003.410564-6.03003971 1.1521452-6.03003971 2.4881887 0 .2198228.08808596.4695826.08808596.7056568 0 .5593934-.20866965.7646754-.60633926 1.0152905-.25912665.1625149-.27537552.2762753-.16505427.4302368.11117645.1565275.66876911.9810768.66876911 1.1435917 0 .2668666-.26596828.5362992-.48062435.7749395-.18814476.210414-.18044793.2660112-.03335293.5311671l1.04847946 2.2281649zm44.76306016-12.4041637c-.2309049.242917-.4344434.5020855-.6054841.7775055l-.5823935-.8177065c1.9447327-2.5916851 7.0802295-3.8079808 10.0931113-4.02181619v-1.38993008c-.3822759.11803714-.794484.25061508-1.1759047.34128129-.5404886.13001192-1.0365066.25061509-1.4572667.23949565-.4207602-.0102641-.7619863-.17876639-.9193438-.40372123-.4045112-.57735558-.0290769-1.449804 1.2947781-2.26579987l-1.0442035-.86817172c-.8056016 1.04522743-1.5992305 2.19822789-2.4065425 2.88677787-.7337646.62611004-1.5025925.93830972-2.1234703.47471458-.3343845-.24975974-.4600994-.36352018-.4934524-1.01529047.0444706-.95712723.6268642-2.41976135 1.1399863-3.36149244l-1.235769-.14540807c-.2197873 1.44210592-.8107329 2.67208712-1.4435835 3.68652225-.7884976 1.26590555-1.8053345 2.15375013-2.8521036 2.88079043l-.6867284-.6765752c.8449411-.4986641 1.9028278-1.30952793 2.6306059-2.42745939.8440858-1.29840853 1.5291038-2.90388469 1.529959-4.3622421l3.5747505.33871527c-.5020044.63808482-1.3306966 2.09387621-1.6454114 3.13910363-.1633439.54570793-.1556471.97936612.0419049 1.12734021.3788552.28397341 1.0424931-.16935763 1.6864613-.85961829.9082261-.97594476 1.7976377-2.44798763 2.1901761-2.97316737l2.5852801 2.14519671c-1.1493935.60900321-2.2628684 1.30439592-2.0413707 1.69528703.2026832.3558221.9390134.2489044 1.7454703.00171068.6679648-.20628369 1.3110125-.48597716 1.9173661-.83395805v3.49492577c-1.2460314-.0171069-3.3566736.215546-5.3894922.8322473.4831899.6825626 1.8711852.9331777 2.7528999 1.0546362l-.4421402 2.8363127c-2.2252394-.9348883-3.9416328-1.4788856-6.6380893-1.5302061l.8919772-.766386c1.9874929.0410563 3.9792618.6184119 5.1081304 1.1863587l.1616334-1.0734537c-1.0168369-.1342886-2.2979317-.7124995-2.8401307-1.3676912-.8851356.3327279-1.723235.7475686-2.4296331 1.2547862z"></path><path d="m42.0152737 22.9464108.827837-1.787664c-.9733275-1.1518171-1.8638288-2.3711663-2.664814-3.6488872l-.7166605-1.244522c-1.655674-3.145091-1.0527555-4.6479262-1.9361807-6.0318689-.7303438-1.14359169-4.2777278-.43194748-4.8661078-.30877829l1.0262442-1.69956374-2.0225562.16080422 1.7138278-2.03656833c.1872895-.26515589.2753755-.50721756.4737827-1.21372971.302742-1.0734537 1.2246514-2.90559538 3.9245287-2.90559538 2.996633 0 3.925384 2.42489341 5.2321349 3.47867424 1.7841702 1.44134051 3.5058449 2.95839398 5.1602977 4.54699589l.6867284.6765752c.8851356.9049514 1.7907961 1.835563 2.6254747 2.9620479l.5823935.8177066c3.6072483 5.2671935 8.0893697 15.3354193 10.0708761 19.9465658.1915656.445633.3283982.8989641.4472714 1.2428114-1.4957662-.8332562-2.9491303-1.7404709-4.354696-2.7182756l-.8894117-.62611c-.5580269-.4021547-1.1097013-.8130545-1.6548187-1.2325473l-.9142125-.7184869c-.549986-.440094-1.0919881-.8900769-1.6257418-1.349729l1.8036241 10.5061607c.1325566.618412.6610723.5166263 1.0878189-.0282263.4267465-.5448526.5883799-.693682.4267465-1.4130243l-1.6924477-7.7151811.9142125.7184869 1.622321 6.555338c.1573575.591041.4070769.7783608 1.0980813.8082978.6918596.0299369.8389546-.235219.6918596-.6902607l-1.7565879-5.4408278.8894116.62611 1.6625155 4.8865665c.4267465 1.2513647 0 1.3984835-.7500134 1.3984835-.7500135 0-1.4264794-.1770557-1.8386875.0889555-.4113529.2643006-.9278958.9870642-1.5453527 1.6208723-.5456198.5576827-1.3383934.4122747-1.5000269-.6346634l-1.9934793-12.0620271c-1.2814463-1.1462836-2.496658-2.3645473-3.6397459-3.6488872-.5094531-.2193525-1.0149585-.4477649-1.5162758-.6851286l-.7517238-.3506901c-.1774299-.0852946-.3583182-.1631975-.542199-.2335083-.5516063.6628898-1.0809772 1.4019049-1.6984341 1.9313614-.3283982.2822627-.5524615.4430669-1.0373619.4430669-.1496606 0-.3352397-.0017107-.5079908-.100075-.184724-.1034963-.3583303-.3121996-.5516063-.6064372-.1462398-.2240995-.3626062-.5097835-.5516062-.8271153-.3942488-.661179-.8192849-1.4917157-1.2024161-2.1631589-.4293121-.7552666-.79876-1.3180813-.849217-1.4113136-.0769683-.1436974-.2864932-.3207531-.2864932-.3207531-.21038.342992-.3651719 1.0041711-.3651719 1.3685466l-.7500134-.2540365c.0992036-.4960981.298466-1.136749.407932-1.4455273 0-.2651559-.2976108-.6184119-.5404886-.6184119-.3420813 0-.6944252.3754949-.8714523 1.0931265l-.7611311.3310172c.0889412-1.1589878.4849004-2.4274594 1.6325834-2.4274594.9270406 0 1.5008821.7065121 1.9421671 1.3685465.4404298.6603237 1.8865789 2.6361628 2.1944521 3.0219219l.5738416.7270403c.1000588.4541864.2924796.7167763.3856967.8621843.1992624.3087783.4199049.2873948.7175157.0102641.1359774-.1248798.5729864-.4807019.9963121-.9220582.3677375-.3840484.7252125-.8502095.8688867-1.0862838.4207601.1890305 1.2049817.5645254 1.8361219.8416561-2.7084294-3.3375429-5.3014063-7.3884406-6.4259989-10.1434959-.4652307-1.1384597.4438506-1.519942.88257-.3977338 1.1921536 3.0458714 4.677963 8.431102 7.237587 11.2545846 2.959004 3.2656942 8.38527 7.9906011 11.9155499 9.8886041-.5114116-.999039-1.1878776-2.4325915-1.9678232-4.0945202-4.2939766-2.4291701-8.6341342-6.8897765-10.6566904-10.7217068l.8894116.102641c1.883158 3.3298448 6.3798179 7.7716337 9.0369351 9.0631995-2.4287779-5.1551438-5.5904651-11.6890982-8.0577271-14.4997507-3.0607733-3.4855169-6.4029084-6.18155362-7.9995733-7.58431383-1.5735744-1.38308735-2.2218186-3.11857543-4.4872526-3.11857543-1.8686196 0-2.8503932 1.34545232-3.2249723 2.70373476-.0778235.26515589-.1214389.43023682-.3087285.70565681l-.88257 1.05976823 1.907959-.23179757-1.1040677 1.54474691s2.9915017-.67144315 4.039126.75013457c1.1271582 1.53277215.39938 3.25371945 2.2500403 6.59896035.8141537 1.4703322 2.7828321 4.1141931 3.4413388 4.7009574l-1.290502 2.7131435zm-29.4018953.4627398-.4524027-.3070677c.3800504-.304943.7990937-.5577903 1.2460315-.7518452.2405175-.0986071.4969979-.1525202.7568551-.1590936.5071356 0 .9441446.2121248 1.3708911.4396456.6747556.3592435 1.4324658.7817822 2.013149.7817822.2206425 0 .4344434-.0521758.6841628-.0521758.5746967 0 1.1263029.2574578 1.441873.2574578.1915656 0 .3241221-.1719237.4498371-.3524007.3164252-.4558971.7534342-.793757 1.3118821-1.0272653.5994976-.2506151 1.3204341-.35069 2.1046557-.35069.6174569 0 1.2101129.0889555 1.5188414.1556721 0 0-.4712171.5679469-.5892352.6936821-.6234433 0-1.811321-.0213836-2.5741625.2873947-.4686515.1890305-.6362713.4610292-.6362713.8502096 0 .5611041.6277193.7817822 1.3272758.9939069.412208.1248799.8748731.1556722 1.2648459.1556722.4806243 0 1.4016785-.1804771 2.311615-.380627 1.0989364-.2420617 2.1200494-.5311672 2.4185154-.6415062l.3968144.7133549c-1.222941.4139853-2.4732484.8065871-3.6337595 1.0426614-.6559411.1334333-1.2810949.215546-1.8386875.215546-.9313166 0-1.9421671-.3908911-2.7734249-.7869142-.7012668-.3344386-1.3264206-.6646004-1.8857236-.6646004-.6285746 0-1.2195202.2172567-1.8019137.5499846-.2847828.1633703-1.1442623.7552666-1.9096694 1.0554915-.5875248.2335083-1.0664387.3626649-1.6616604.3626649-.5302261 0-.8466514-.0752701-1.1211717-.2891055l.9219093-.5645254c.1188733.1171818.331819.1385653.4635203.1385653.1325566 0 .2907692-.0171068.6525203-.1667916.2069592-.0872449.5079908-.2719986.6841627-.3857591.3643167-.2352189.4849004-.3729289.6285746-.485834.2787963-.2206781.3814208-.5132049.0256561-.8305367-.1741681-.1643836-.3637579-.3116116-.5661447-.4396456-.3189909-.1907411-.5490406-.3772056-1.1254478-.3772056-.6807419-.002566-1.1605111.1847538-1.4239137.3198978z"></path><path d="m25.4559689 23.7752368s-.5481854-.1522508-.739751-.1667917c.3450675-.4577528.7624694-.8561543 1.235769-1.179516.7483031-.5063622 1.5316694-.7834929 2.7169814-.8553416.3224118-.0196728.979208-.0821128 1.3460903-.0667166.3309638.0153961.8902668.0367797 1.4050993.1317226.3643167.0684273.7038325.1702129.9860496.2138354.1718959.0265156.7696831.0179621.9774976-.0153962.8389546-.1317226 1.8463843-.455897 2.3766104-.7450025l.2206425.8065871c-1.1331446.5782109-2.4133842 1.1358936-3.5850129 1.1358936-.596932 0-1.2306378-.0453331-1.8215834-.1000749-1.0416378-.100075-1.9430223-.2386403-2.2534612-.2386403-.8432306 0-2.0567643.3926018-2.8649316 1.0794411zm-.836389 4.4854113-1.0655835-.4875448c1.4777916-.7484238 3.7355287-1.4985584 4.6617141-1.6473879.9270406-.145408 1.9866377-.2574578 2.5963977-.4627398.2796516.7065122.832113 1.4617788 1.6265971 1.4617788.2899139 0 .7662623-.2189674 1.2451762-.4310921.537923-.2369297 1.0784116-.4960982 1.3580631-.6218334.3027421-.1334333 1.2845156-.5645254 2.1166286-.9357437.416324-.1892574.8299974-.3842942 1.2409003-.5850536l.559303.3027909c-.1676199.7347384-.4472714 1.6388345-.7619863 2.2854727-.1231493.2540365-.2462986.4627398-.3788551.6132799-.2428778.2737094-.6354162.6380849-1.1476831 1.0007497-.559303.3977338-1.2409002.8048764-1.9644023 1.2197171-.5635791.3258852-1.130579.6551917-1.7052758.9186369l-.298466-.5414312c.8859908-.5012302 1.7865201-1.1358937 2.5784385-1.722658.3745791-.2771307.7371854-.5576827.996312-.7954677.1924208-.175345.3130045-.3207531.4087873-.4627398.235181-.345558.6183121-1.0221332.735475-1.3463076-.3301086.1616595-1.580416.7518452-2.1397191 1.044372-.6311402.3327279-1.6548187.8536309-2.2286603 1.1256296-.4515474.2121247-.8543482.3293065-1.143407.3293065-.6405474 0-.9313166-.4610291-1.088674-.7398705-.4045113-.7219083-.8380994-.7886249-1.9789409-.8031657-1.3238549-.0162515-3.1403071.5311671-4.2221395 1.2813017zm6.2190397-3.3272788s-.1547919-.6295314-.2283394-.858763c0 0 .1838688-.0598739.4267466-.0598739.3968144 0 1.3777328.1103391 1.7848096.1103391 1.5325246 0 2.0978141-.4824127 2.5476512-.8886999.3839863-.345558.7782351-.6278208 1.8207281-.6278208.9193438 0 1.9746649.3712183 2.2765517.5174817l-.0658507.8373794c-.4964954-.2654325-1.0491548-.4085313-1.6120585-.4174067-.3797104 0-.7217918.029937-.9629591.1556722-.2710995.140276-.4361538.35069-.6910044.5593934-.2702443.2223888-.6405474.4379349-1.1254478.6167013s-1.0852532.3010802-1.9806512.3010802c-1.1818912-.0017107-1.8224386-.1992946-2.1901761-.245483z"></path><path d="m21.1329153 31.2543436.7063981-.2925268c.647389.2506151 1.5829816.5345885 2.2337915.5345885.3916832 0 .7149501-.140276.9809184-.2591685.2086696-.0932322 2.5621896-1.2479434 3.7303975-1.6721928.3711583-.1334333.7483031-.2087034.9313166-.2087034.2796515 0 .2959004.1248799.3745791.2540365.2206425.3524007 1.958416 2.8328913 2.1345879 3.0236325 1.4735156-.4524757 2.9829497-1.1162208 3.8535468-1.9510342.9073709-.8750144 1.6608052-1.8877389 2.3885833-2.6712317.2805068-.302791.6277194-.5765003.7996153-.6680218.7534342-.4011552 3.0966918-.4345136 4.0818862-.3908911l-.584104.8271153c-1.7360631 0-2.7075742.1787664-3.1445832.5080729-.1847239.1385653-.4635203.4191174-.7294885.7655307-.5926561.7732288-1.2400451 1.8312863-1.4991717 2.038279.5079908.3524007 1.0638731.6611791 1.9455879.6611791 1.4709499 0 2.5245606-.9203476 3.101823-1.4403953l.4943076.2942375c-.3651719.4747146-.7833664.9605486-1.3161582 1.3232135-.5909456.4011552-1.3358278.661179-1.7762576.7834929-.8534931-.1616596-2.7332303-.5414313-3.1736601-.6295314-1.6257418.6628897-4.2734517 1.7337774-5.1628633 2.0014993-.1966635.0491631-.3972688.0809331-.5994977.0949429-.7029772.0384904-1.6804748.0333583-2.5707416.0230942-.6319954-.0085534-1.2297826-.005132-1.529959-.0598739l-.7842216-.8185619c.6918596.1317226.9612487.1719237 1.6077825.1719237 1.529959 0 2.5142982-.2557472 2.8392755-.3387153.27281-.070138.3181357-.2275209.2368914-.4747146-.1291357-.3926018-.3557646-.7655307-.7004116-1.1641199-.2353986-.2564358-.4939062-.4906477-.7722488-.6996694-.21038-.1436974-.4156289-.1804771-.9928912.0171068-.5353574.1821878-2.1961625 1.0811518-2.9119678 1.4617788-.3540543.1890305-.6294298.2437723-1.264846.0932322-.6730451-.1582382-2.282538-.7467132-2.9282167-1.1376043zm4.6052707-18.4351773c.3329827 0 .6029185-.2699793.6029185-.6030158 0-.3330364-.2699358-.6030158-.6029185-.6030158-.3329826 0-.6029184.2699794-.6029184.6030158 0 .3330365.2699358.6030158.6029184.6030158z"></path></g></svg>