<svg xmlns="http://www.w3.org/2000/svg" height="41.996876" viewBox="0 0 117.001155 41.9968763" width="117.001155"><path d="m14.9906542 1.86446959c-7.61999997 8.91000001-14.91999997 19.97000001-14.9906542 28.24000001-.02934577 3.1.97065423 5.82 3.36065423 7.88 3.04093096 2.6505183 6.95667527 4.079284 10.98999997 4.01 5.5.01 10.97-2.2 15.25-3.91 7.21-2.88 86.8999998-37.40000001 86.8999998-37.40000001.78-.38.63-.86-.33-.62l-86.7699998 23.44000001c-1.64.46-3.33.7-5.03.72-6.64.04-12.54-3.64-12.5-11.38.02-3.03000001.95-6.69000001 3.1-10.98000001z" transform="translate(.000626)"></path></svg>