<svg xmlns="http://www.w3.org/2000/svg" height="43" viewBox="0 0 172 43" width="172"><path d="M165.84 6.2A20.93 20.93 0 0 0 150.95.05H21.05A21.05 21.05 0 0 0 0 21.05c0 5.61 2.19 10.89 6.16 14.85a20.93 20.93 0 0 0 14.89 6.15h129.9c5.59.02 10.95-2.2 14.89-6.15A20.84 20.84 0 0 0 172 21.05c0-5.6-2.19-10.88-6.16-14.85zm-14.89 35.04H21.05a20.12 20.12 0 0 1-14.31-5.91A20.03 20.03 0 0 1 .8 21.05c0-5.39 2.1-10.46 5.93-14.27A20.12 20.12 0 0 1 21.04.86h129.91a20.12 20.12 0 0 1 14.31 5.92 20.04 20.04 0 0 1 5.93 14.27 20.23 20.23 0 0 1-20.24 20.2z"></path><path d="M115.59 20.1v-3.2c0-1.57 1.27-2.57 2.85-2.57s2.84 1 2.84 2.57v3.2zm-46.84-5.11a1.53 1.53 0 1 1 0 3.06H65.2V15zm1.41 11.43H65.2v-3.91l4.96-.02a1.97 1.97 0 1 1 0 3.93z"></path><path d="M163.37 8.67a17.47 17.47 0 0 0-12.42-5.14H21.05A17.56 17.56 0 0 0 3.49 21.05c0 4.68 1.83 9.08 5.14 12.4a17.47 17.47 0 0 0 12.42 5.12h129.9c4.7 0 9.1-1.82 12.42-5.13a17.4 17.4 0 0 0 5.14-12.39c0-4.68-1.82-9.08-5.14-12.38zM36.7 28.89c-1.1 1.5-4.76 3.91-9.37 3.91-4.61 0-9.78-1.78-12.46-2.88l-1.24 2.88c0-2.26-2.2-6.6-4-8.8 3.44.21 7.16-1.5 8.47-2.4l-1 2.79c2.41 1.44 8.2 2.54 9.71 2.6s4.1-.3 4.1-2.02-3.17-1.92-5.5-2.47c-5.04-1.3-6.69-4.33-6-7.22.96-3.98 5.92-5.9 8.82-5.9 2.89 0 4.68.47 6.95 1.92l-1.72 4.33c-2.34-1.1-5.03-1.3-6.27-.48-1.24.82-1.3 2.4.35 2.74 1.22.26 4.98.6 7.7 2.34 3.66 2.33 2.47 7.27 1.46 8.66zm10.94 3.92c-4.76 0-8.61-2.95-8.61-7.7V9.78h5.93v14.78a2.68 2.68 0 0 0 5.36 0V9.78h5.93l.01 15.33c0 4.75-3.86 7.7-8.62 7.7zm24.8-1.18H59.28V9.78h11.57c4.27 0 5.85 3.03 5.85 5.43s-1.65 4.06-2.82 4.54c3.3 1.23 4.2 3.7 4.2 6.25 0 2.27-2.4 5.63-5.64 5.63zm26.3 1.16a6.72 6.72 0 0 1-5.38-3.13A6.67 6.67 0 0 1 88 32.79a8.34 8.34 0 0 1-8.35-8.34l-.02-14.67h5.96v14.33a2.4 2.4 0 0 0 4.82 0V9.78h5.92v14.33a2.4 2.4 0 0 0 4.82 0V9.78h5.92l.02 14.67c0 4.6-3.74 8.34-8.35 8.34zm22.52-.88v-6.6h-5.67v6.6h-5.9V16.35c0-4.82 3.92-7.42 8.75-7.42 4.82 0 8.73 2.6 8.73 7.42l.01 15.56zm33.58-6.4a1.87 1.87 0 1 1 0-3.73 1.87 1.87 0 1 1 0 3.74zm-2.8-5.9 2.34-3.64c-4.27-3.03-6.02-.85-7.44 3.16-1.24 3.5-3.03 4.8-5.3 4.8v7.7h-6.2v-7.76c-4.68-.2-5.1-5.29-5.3-7.9-.2-2.61-1.58-5.15-2.9-6.18h6.55c1.38 1.1 1.72 2.88 2.06 5.22.35 2.33.93 4.26 2.72 4.26 1.31 0 1.94-.4 2.64-1.97.91-1.6 1.34-3.95 2.08-5.38 1.17-2.27 4.13-3.85 7.23-3.58 2.5.22 5.3 1.65 6.89 2.75 0 0 2.06-3.23 2.13-3.3.07 1.1.28 7.15 2.96 10.65-5.3-1.23-8.74.41-10.46 1.17z"></path><path d="M154.84 22.1c-.86 0-1.53.66-1.53 1.54 0 .9.67 1.57 1.53 1.57.84 0 1.51-.67 1.51-1.57 0-.88-.67-1.55-1.51-1.55zm.55 2.63-.57-.94h-.38v.94h-.33v-2.16h.83c.5 0 .76.19.76.61 0 .39-.24.56-.56.6l.61.95h-.36z"></path><path d="M154.83 23.52c.28 0 .53-.02.53-.36 0-.26-.25-.31-.47-.31h-.45v.67z"></path></svg>