<svg xmlns="http://www.w3.org/2000/svg" height="43" viewBox="0 0 244 43" width="244"><path d="M139.9 29.43a2.71 2.71 0 0 1 2.55-1.44c1.18 0 2.1.5 2.72 1.52.53.87.79 1.98.79 3.3 0 1.5-.29 2.72-.86 3.63a2.88 2.88 0 0 1-2.6 1.36 2.9 2.9 0 0 1-2.73-1.68 7.15 7.15 0 0 1-.68-3.3c0-1.3.27-2.43.81-3.4zM41.94 42.05v-42H0v42zm5.3-32.18c0 2.94.71 5.04 2.15 6.3 1.3 1.16 3.37 1.73 6.24 1.73 2.86 0 4.97-.63 6.31-1.91 1.35-1.28 2.02-3.32 2.02-6.12V.05H58.3v10.4c0 1.01-.2 1.8-.6 2.36-.4.56-1.1.84-2.07.84-1.12 0-1.85-.27-2.18-.81a4.64 4.64 0 0 1-.5-2.39V.05h-5.71v9.82zM71.3.05h-5.35v17.38h5.46v-5.5l-.21-3.95 6.18 9.45h5.35V.05h-5.45v5.52l.2 3.99zm19.24 17.38V.05h-5.71v17.38zm1.21-12.8h5.14v12.8h5.66V4.63h5.14V.04H91.75zm31.61 12.8V13.4h-8.8v-2.73h7.18V6.62h-7.18V4.1h8.49V.05h-14.16v17.38h14.47zm8.76 0c2.9 0 5.16-.72 6.79-2.18 1.62-1.45 2.44-3.73 2.44-6.85 0-2.83-.8-4.93-2.36-6.3C137.4.74 135.18.06 132.28.06h-7.6v17.37h7.44zM46.29 28.77h5.14v12.81h5.72v-12.8h5.08V24.2H46.3zm31.67 12.81v-4.04h-8.8v-2.73h7.12v-4.04h-7.13v-2.53h8.44V24.2H63.44v17.38h14.52zm17.62-10.7c-.25-2.32-1.1-4.09-2.57-5.31-1.47-1.23-3.53-1.84-6.19-1.84a8.3 8.3 0 0 0-6.19 2.52c-1.64 1.68-2.46 3.89-2.46 6.61 0 2.88.83 5.12 2.49 6.75 1.66 1.63 3.9 2.44 6.74 2.44 2.3 0 4.2-.64 5.69-1.91a7.78 7.78 0 0 0 2.59-5.28h-5.45c-.1.88-.41 1.58-.92 2.13-.5.54-1.18.8-2.02.8-1.33 0-2.27-.48-2.83-1.46a7.03 7.03 0 0 1-.58-3.25c0-3.4 1.07-5.1 3.2-5.1 1.89 0 2.92.97 3.1 2.9zm6.81 10.7v-6.72h5.4v6.72h5.66V24.21h-5.66v5.87h-5.4v-5.87h-5.66v17.37zm18.35-17.37h-5.3v17.37h5.46v-5.51l-.26-3.94 6.24 9.45h5.3V24.21h-5.46v5.5l.2 4zm28.63 2.3c-1.68-1.85-3.97-2.78-6.87-2.78-2.7 0-4.88.83-6.55 2.47-1.68 1.65-2.52 3.84-2.52 6.56 0 2.9.82 5.18 2.46 6.83 1.65 1.64 3.85 2.46 6.6 2.46 2.67 0 4.85-.82 6.56-2.46 1.71-1.65 2.57-3.9 2.57-6.78 0-2.52-.75-4.61-2.25-6.3zm17.14 15.07v-4.04h-7.8V24.21h-5.67v17.37zm16.3-15.07c-1.67-1.85-3.96-2.78-6.86-2.78-2.73 0-4.93.83-6.6 2.47-1.69 1.65-2.52 3.84-2.52 6.56 0 2.94.83 5.22 2.48 6.85 1.66 1.63 3.88 2.44 6.64 2.44 2.65 0 4.84-.82 6.55-2.46 1.71-1.65 2.57-3.9 2.57-6.78a9.1 9.1 0 0 0-2.25-6.3zm20.3 5.52h-7.82v3.78h2.52c-.14.56-.5 1.03-1.1 1.41-.6.39-1.2.58-1.83.58-1.33 0-2.27-.43-2.81-1.28-.54-.86-.81-2-.81-3.44 0-1.58.28-2.82.84-3.73a2.72 2.72 0 0 1 2.46-1.36c1.54 0 2.52.73 2.94 2.2h5.4a7.2 7.2 0 0 0-2.78-4.78 8.87 8.87 0 0 0-5.45-1.68c-2.76 0-4.97.87-6.64 2.6-1.65 1.74-2.48 4-2.48 6.8 0 2.9.85 5.16 2.56 6.77a8.15 8.15 0 0 0 5.88 2.15c1.29 0 2.35-.19 3.2-.57a5.7 5.7 0 0 0 2.04-1.53l.2 1.69h3.68v-9.61zm7.76 9.55V24.21h-5.72v17.37zm16.83 0v-4.04h-8.81v-2.73h7.13v-4.04h-7.13v-2.53h8.44V24.2h-14.16v17.38h14.53zm15.83-12.33a6.24 6.24 0 0 0-2.18-4c-1.2-1-2.96-1.52-5.27-1.52-2.27 0-4.09.48-5.45 1.45a4.74 4.74 0 0 0-2.04 4.11c0 2.56 1.66 4.31 4.98 5.25 3.32.95 4.98 1.69 4.98 2.21 0 .88-.79 1.31-2.36 1.31-.6 0-1.13-.14-1.6-.42a2.2 2.2 0 0 1-.97-1.41h-5.45c0 1.6.73 2.98 2.2 4.12s3.3 1.7 5.5 1.7c2.48 0 4.46-.5 5.93-1.52a5.08 5.08 0 0 0 2.2-4.46c0-2.45-1.66-4.15-4.98-5.1-3.32-.94-4.98-1.67-4.98-2.2 0-.66.6-1 1.78-1 .56 0 1.06.12 1.5.34.43.23.7.6.8 1.13h5.4zm-70.18.18a2.72 2.72 0 0 1 2.55-1.44c1.18 0 2.06.47 2.62 1.41.56.95.84 2.09.84 3.41 0 1.55-.28 2.76-.84 3.65a2.83 2.83 0 0 1-2.57 1.34 2.9 2.9 0 0 1-2.73-1.68 7.11 7.11 0 0 1-.68-3.3c0-1.3.27-2.43.81-3.4zM27.47 18.53l9.12-3.4.27.62-9.18 3.47zm-1.05-1.94 7.4-6.3.47.58-7.45 6.3zm-1.67-1.47 5.13-8.3.79.48-5.24 8.4zm-1.94-.84 2.46-9.55 1 .26-2.57 9.5zm-6.92-9.4 1.04-.3 3 9.54-1.05.21zM12.85 6.2l5.45 8.45-1 .52-5.5-8.34zM9.39 8.72l7.39 6.82-.9.9-7.54-6.78zM6.7 12.08l8.91 4.67-.73 1.1-8.97-4.57zm9.44 13.7a6.54 6.54 0 0 0 4.87 2.05c1.92 0 3.55-.67 4.88-2A6.58 6.58 0 0 0 27.89 21h9.86v2.1l-3.2.32 2.94.68-.58 2.04-3.3-.36 2.88 1.42-.84 1.89-3.4-1 2.77 1.94-1.2 1.78-3.46-1.89 2.62 2.73-1.58 1.48-3.2-2.68 2.26 3.36-1.89 1.15-2.78-3.62 1.73 4.15-1.94.68-2.25-4.46.9 4.72-2.16.37-1.26-5.3-.05 5.3-2.04-.05-.32-5.73-1.2 5.41-1.94-.52 1.04-6.04-2.57 5.46-1.67-1 2.57-5.93-4.04 4.99-1.31-1.21 4.09-5.73-5.45 4.36-1-1.47 5.4-4.82-6.4 3.2-.79-1.73 7.08-3.68-7.76 1.78-.41-1.57 8.5-2.41h-8.5v-1.47l9.28-.21-8.86-2.37.42-1.3 9.9 2.35a6.83 6.83 0 0 0 1.36 7.67zM20.7 4.15h.94v9.97h-.94zm109.63-.05h1.1c1.57 0 2.67.31 3.3.94.63.63.95 1.86.95 3.68 0 3.11-1.38 4.67-4.15 4.67h-1.2z"></path></svg>